<svg width="481" height="179" viewBox="0 0 481 179" fill="none" xmlns="http://www.w3.org/2000/svg">
<path fill-rule="evenodd" clip-rule="evenodd" d="M234.486 18.676C234.486 29.232 243.093 37.352 256.572 37.352C270.051 37.352 278.658 29.232 278.658 18.0264C278.658 7.4704 270.051 0 256.572 0C243.093 0 234.486 8.12 234.486 18.676ZM238.221 75.2144V133.33H276.6L278.402 93.3304L262.402 99.3304L266.402 43.3304L267.649 42.8813H239.186V42.8736C238.863 42.8736 238.541 42.8762 238.221 42.8813C226.327 43.072 216.767 46.8046 210.441 54.0792V44.4976H175.525V62.9688C168.133 50.3116 153.441 42.8736 134.725 42.8736C104.031 42.8736 82.2698 61.8744 82.2698 88.8328L82.2701 89.0041L82.2707 89.1421C74.8185 79.8679 60.4724 78.1442 49.7677 76.858C42.0604 75.932 36.2408 75.2328 36.2408 72.1056C36.2408 69.9944 38.8392 67.8832 48.2584 67.8832C55.7288 67.8832 64.8232 69.3448 73.9176 74.3792L83.9864 50.1816C74.5672 45.3096 60.7632 42.8736 47.7712 42.8736C17.8896 42.8736 2.2992 56.5152 2.2992 73.2424C2.2992 96.8634 24.8641 99.4239 40.0208 101.144C47.6852 102.013 53.4552 102.668 53.4552 105.722C53.4552 108.321 51.0192 109.945 42.0872 109.945C31.5312 109.945 19.5136 107.022 11.0688 101.987L1 126.185C10.0944 131.382 26.0096 134.954 41.2752 134.954C69.4515 134.954 84.4923 123.308 86.8923 109.044C94.8437 124.927 112.427 134.954 134.725 134.954C153.441 134.954 168.133 127.516 175.525 114.859V133.33H212.228V93.8672C212.228 79.7384 220.023 74.704 231.066 74.704C233.399 74.704 235.471 74.8349 238.221 75.2144ZM289.691 42.8813L283.402 74.3304L298.402 70.3304L279.823 135.149V164.836H316.525V127.322C321.885 132.518 329.355 134.954 339.099 134.954C362.322 134.954 381.973 117.578 381.973 88.9952C381.973 84.4278 381.471 80.1425 380.533 76.1656H386.227V98.9016C386.227 123.424 400.518 134.954 425.04 134.954C433.648 134.954 441.93 133.493 447.614 130.245L438.844 104.748C436.408 106.372 433.485 107.184 430.562 107.184C426.177 107.184 422.929 104.098 422.929 98.5768V76.1656H441.118V49.3696H422.929V24.5224H386.227V49.3696H374.047V61.1067C366.197 49.4482 353.318 42.8736 339.099 42.8736C328.056 42.8736 320.098 45.7968 314.739 51.8056V44.4976V42.8813H289.691ZM175.525 70.6002V107.228L149.991 94.6792C146.255 102.962 140.896 106.372 134.563 106.372C126.28 106.372 119.459 100.526 119.459 88.8328C119.459 77.3024 126.28 71.456 134.563 71.456C140.896 71.456 146.255 74.8664 149.991 83.1488L175.525 70.6002ZM330.329 106.372C338.449 106.372 344.783 100.526 344.783 88.9952C344.783 77.4648 338.449 71.456 330.329 71.456C322.209 71.456 315.876 77.4648 315.876 88.9952C315.876 100.526 322.209 106.372 330.329 106.372Z" fill="white"/>
<path d="M19.0934 171L17.0439 166.257H6.7969L4.77677 171H0.853614L10.076 150.506H13.8234L23.0751 171H19.0934ZM8.0851 163.271H15.785L11.9204 154.312L8.0851 163.271ZM39.39 166.901V160.519H42.9911V168.687C40.8539 170.414 37.8676 171.293 34.9692 171.293C28.616 171.293 23.9316 166.872 23.9316 160.753C23.9316 154.634 28.616 150.213 35.0277 150.213C38.4532 150.213 41.3223 151.355 43.2546 153.551L40.8539 155.893C39.2437 154.283 37.3992 153.551 35.2034 153.551C30.8411 153.551 27.767 156.508 27.767 160.753C27.767 164.91 30.8411 167.955 35.1741 167.955C36.638 167.955 38.0726 167.662 39.39 166.901ZM55.5353 146.671L52.9589 148.837H49.9434L53.8665 144.826H57.2041L61.1273 148.837H58.1117L55.5353 146.671ZM51.8171 167.809H63.3816V171H48.0111V150.506H62.9717V153.697H51.8171V159.026H61.7128V162.158H51.8171V167.809ZM82.0582 150.506H85.835V171H82.7023L71.4013 157.123V171H67.6245V150.506H70.7572L82.0582 164.383V150.506ZM100.812 171.293C94.547 171.293 89.8627 166.872 89.8627 160.753C89.8627 154.634 94.547 150.213 100.842 150.213C104.179 150.213 107.048 151.414 108.951 153.639L106.492 155.951C104.999 154.341 103.155 153.551 101.017 153.551C96.7721 153.551 93.698 156.537 93.698 160.753C93.698 164.969 96.7721 167.955 101.017 167.955C103.155 167.955 104.999 167.165 106.492 165.525L108.951 167.867C107.048 170.092 104.179 171.293 100.812 171.293ZM112.598 171V150.506H116.404V171H112.598ZM137.289 171L135.239 166.257H124.992L122.972 171H119.049L128.271 150.506H132.019L141.271 171H137.289ZM126.281 163.271H133.981L130.116 154.312L126.281 163.271Z" fill="white"/>
<path d="M464.317 135.073C456.266 135.073 450.147 129.277 450.147 121.118C450.147 112.852 456.266 107.377 464.317 107.377C472.368 107.377 478.487 112.852 478.487 121.118C478.487 129.277 472.368 135.073 464.317 135.073Z" fill="white"/>
</svg>
